# xmcd
#
# Track frame offsets:
#	150
#	22423
#	42533
#	59582
#	80189
#	102927
#	119152
#	134081
#	152945
#	177774
#	195781
#	210618
#	224416
#
# Disc length: 3241 seconds
# Revision: 0
# Processed by: cddbd v1.5.2PL0 Copyright (c) Steve Scherf et al.
# Submitted via: dBpowerAMP V12.0
#
DISCID=d00ca70d
DTITLE=Bill Mallonee - Amber Waves
DYEAR=2012
DGENRE=Alt-Country
TTITLE0=Amber Waves (Golden)
TTITLE1=To The Nines
TTITLE2=One Kiss At A Time
TTITLE3=Faith (Comes Soaked In Gasoline)
TTITLE4=Long Since Gone
TTITLE5=Pillow Of Stars (Fate And Sad Reversals)
TTITLE6=It Was Always Autumn In My Heart
TTITLE7=Once Your Heart Gets Broken (It Just Keeps On Breaking)
TTITLE8=Yeah, Yeah, Yeah (Faith Like A Butterfly's Wing)
TTITLE9=Break In the Clouds
TTITLE10=What You Take (And What You Leave Behind)
TTITLE11=Walking Disaster
TTITLE12=Into God Knows What
EXTD=
EXTT0=
EXTT1=
EXTT2=
EXTT3=
EXTT4=
EXTT5=
EXTT6=
EXTT7=
EXTT8=
EXTT9=
EXTT10=
EXTT11=
EXTT12=
PLAYORDER=
